<?xml version="1.0" encoding="UTF-8"?>
<!DOCTYPE svg PUBLIC "-//W3C//DTD SVG 1.1//EN" "http://www.w3.org/Graphics/SVG/1.1/DTD/svg11.dtd">
<svg version="1.2" width="26.83mm" height="23.76mm" viewBox="12 12 2683 2376" preserveAspectRatio="xMidYMid" fill-rule="evenodd" stroke-width="28.222" stroke-linejoin="round" xmlns="http://www.w3.org/2000/svg" xmlns:ooo="http://xml.openoffice.org/svg/export" xmlns:xlink="http://www.w3.org/1999/xlink" xmlns:presentation="http://sun.com/xmlns/staroffice/presentation" xmlns:smil="http://www.w3.org/2001/SMIL20/" xmlns:anim="urn:oasis:names:tc:opendocument:xmlns:animation:1.0" xml:space="preserve">
 <defs class="EmbeddedBulletChars">
  <g id="bullet-char-template-57356" transform="scale(0.00048828125,-0.00048828125)">
   <path d="M 580,1141 L 1163,571 580,0 -4,571 580,1141 Z"/>
  </g>
  <g id="bullet-char-template-57354" transform="scale(0.00048828125,-0.00048828125)">
   <path d="M 8,1128 L 1137,1128 1137,0 8,0 8,1128 Z"/>
  </g>
  <g id="bullet-char-template-10146" transform="scale(0.00048828125,-0.00048828125)">
   <path d="M 174,0 L 602,739 174,1481 1456,739 174,0 Z M 1358,739 L 309,1346 659,739 1358,739 Z"/>
  </g>
  <g id="bullet-char-template-10132" transform="scale(0.00048828125,-0.00048828125)">
   <path d="M 2015,739 L 1276,0 717,0 1260,543 174,543 174,936 1260,936 717,1481 1274,1481 2015,739 Z"/>
  </g>
  <g id="bullet-char-template-10007" transform="scale(0.00048828125,-0.00048828125)">
   <path d="M 0,-2 C -7,14 -16,27 -25,37 L 356,567 C 262,823 215,952 215,954 215,979 228,992 255,992 264,992 276,990 289,987 310,991 331,999 354,1012 L 381,999 492,748 772,1049 836,1024 860,1049 C 881,1039 901,1025 922,1006 886,937 835,863 770,784 769,783 710,716 594,584 L 774,223 C 774,196 753,168 711,139 L 727,119 C 717,90 699,76 672,76 641,76 570,178 457,381 L 164,-76 C 142,-110 111,-127 72,-127 30,-127 9,-110 8,-76 1,-67 -2,-52 -2,-32 -2,-23 -1,-13 0,-2 Z"/>
  </g>
  <g id="bullet-char-template-10004" transform="scale(0.00048828125,-0.00048828125)">
   <path d="M 285,-33 C 182,-33 111,30 74,156 52,228 41,333 41,471 41,549 55,616 82,672 116,743 169,778 240,778 293,778 328,747 346,684 L 369,508 C 377,444 397,411 428,410 L 1163,1116 C 1174,1127 1196,1133 1229,1133 1271,1133 1292,1118 1292,1087 L 1292,965 C 1292,929 1282,901 1262,881 L 442,47 C 390,-6 338,-33 285,-33 Z"/>
  </g>
  <g id="bullet-char-template-9679" transform="scale(0.00048828125,-0.00048828125)">
   <path d="M 813,0 C 632,0 489,54 383,161 276,268 223,411 223,592 223,773 276,916 383,1023 489,1130 632,1184 813,1184 992,1184 1136,1130 1245,1023 1353,916 1407,772 1407,592 1407,412 1353,268 1245,161 1136,54 992,0 813,0 Z"/>
  </g>
  <g id="bullet-char-template-8226" transform="scale(0.00048828125,-0.00048828125)">
   <path d="M 346,457 C 273,457 209,483 155,535 101,586 74,649 74,723 74,796 101,859 155,911 209,963 273,989 346,989 419,989 480,963 531,910 582,859 608,796 608,723 608,648 583,586 532,535 482,483 420,457 346,457 Z"/>
  </g>
  <g id="bullet-char-template-8211" transform="scale(0.00048828125,-0.00048828125)">
   <path d="M -4,459 L 1135,459 1135,606 -4,606 -4,459 Z"/>
  </g>
  <g id="bullet-char-template-61548" transform="scale(0.00048828125,-0.00048828125)">
   <path d="M 173,740 C 173,903 231,1043 346,1159 462,1274 601,1332 765,1332 928,1332 1067,1274 1183,1159 1299,1043 1357,903 1357,740 1357,577 1299,437 1183,322 1067,206 928,148 765,148 601,148 462,206 346,322 231,437 173,577 173,740 Z"/>
  </g>
 </defs>
 <g class="Page">
  <g class="com.sun.star.drawing.ClosedBezierShape">
   <g id="id3">
    <rect class="BoundingBox" stroke="none" fill="none" x="12" y="12" width="2683" height="2376"/>
    <path fill="rgb(0,0,0)" stroke="none" d="M 1505,13 C 1298,13 1093,67 913,172 732,276 583,426 478,607 399,744 348,896 328,1053 L 329,1053 66,1015 C 63,1014 61,1014 59,1014 51,1014 43,1016 36,1020 29,1024 23,1030 19,1037 15,1044 13,1052 13,1060 13,1068 15,1076 19,1083 21,1084 22,1086 23,1088 L 383,1548 C 386,1553 391,1557 396,1560 403,1564 411,1566 419,1566 427,1566 435,1564 442,1560 443,1559 445,1558 446,1557 L 905,1216 C 910,1212 914,1208 917,1202 921,1195 923,1187 923,1179 923,1171 921,1164 917,1157 913,1150 907,1144 900,1140 895,1137 890,1135 884,1134 L 622,1096 C 623,1088 624,1079 625,1071 641,960 678,853 735,755 812,620 926,507 1061,429 1196,351 1349,310 1505,310 1662,310 1816,351 1951,429 2087,507 2199,619 2277,755 2356,890 2396,1043 2396,1200 2396,1356 2356,1510 2277,1645 2199,1781 2087,1893 1951,1971 1816,2050 1662,2090 1505,2090 1349,2090 1196,2049 1061,1971 1042,1959 1023,1948 1005,1935 1002,1933 999,1931 996,1930 973,1917 948,1910 922,1910 896,1910 871,1917 849,1930 844,1933 839,1936 834,1939 818,1952 804,1967 794,1984 781,2007 774,2032 774,2058 774,2084 780,2111 794,2133 805,2153 821,2169 840,2181 864,2198 888,2213 913,2227 1093,2331 1297,2386 1505,2386 1714,2386 1919,2331 2099,2227 2280,2123 2430,1974 2534,1793 2639,1613 2693,1408 2693,1200 2693,991 2639,787 2534,607 2430,426 2280,277 2099,172 1969,97 1826,48 1677,26 1620,18 1563,13 1505,13 Z"/>
   </g>
  </g>
  <g class="com.sun.star.drawing.ClosedBezierShape">
   <g id="id4">
    <rect class="BoundingBox" stroke="none" fill="none" x="1011" y="567" width="717" height="1132"/>
    <path fill="rgb(0,0,0)" stroke="none" d="M 1583,568 C 1558,568 1533,574 1511,587 1489,599 1472,618 1459,640 1447,661 1439,686 1439,711 L 1439,711 1439,1168 1071,1440 C 1055,1452 1041,1466 1031,1484 1019,1505 1012,1529 1012,1554 1012,1579 1018,1604 1031,1626 1043,1648 1062,1666 1084,1678 1106,1691 1130,1697 1156,1697 1181,1697 1205,1691 1227,1678 1232,1676 1236,1673 1240,1670 L 1724,1315 1726,1315 1726,711 1726,711 C 1726,686 1720,661 1707,640 1695,618 1676,600 1654,587 1633,575 1608,568 1583,568 Z"/>
   </g>
  </g>
 </g>
</svg>